<?xml version="1.0" standalone="no"?>
<!DOCTYPE svg PUBLIC "-//W3C//DTD SVG 20010904//EN"
 "http://www.w3.org/TR/2001/REC-SVG-20010904/DTD/svg10.dtd">
<svg version="1.0" xmlns="http://www.w3.org/2000/svg"
 width="1024.000000pt" height="1024.000000pt" viewBox="0 0 1024.000000 1024.000000"
 preserveAspectRatio="xMidYMid meet">

<g transform="translate(0.000000,1024.000000) scale(0.100000,-0.100000)"
fill="#000000" stroke="none">
<path d="M5050 9504 c-134 -43 -984 -261 -1400 -360 -783 -185 -1155 -262
-1670 -344 -74 -12 -214 -34 -310 -50 -96 -15 -215 -33 -263 -40 l-88 -12 2
-149 c0 -82 3 -149 6 -149 19 0 829 154 1153 219 430 87 684 141 1175 251 673
150 788 174 1397 298 l77 15 253 -52 c274 -56 930 -197 1338 -286 435 -96 479
-105 695 -151 305 -64 1081 -218 1285 -254 96 -17 185 -33 198 -36 l22 -4 0
149 0 149 -67 11 c-38 6 -138 22 -223 35 -85 14 -202 32 -260 41 -394 61 -948
169 -1400 275 -601 140 -1598 390 -1775 444 -60 19 -85 19 -145 0z"/>
<path d="M4970 8854 c-598 -85 -1057 -163 -1455 -249 -377 -80 -1056 -242
-1555 -369 -179 -46 -395 -101 -481 -121 l-156 -38 -7 -286 c-3 -157 -10 -351
-15 -431 -13 -197 -13 -650 -1 -845 55 -849 326 -1809 749 -2655 410 -821
1032 -1619 1682 -2161 394 -329 783 -582 1224 -796 185 -89 154 -91 380 20
450 222 946 559 1325 901 529 477 1044 1128 1398 1768 45 81 82 154 82 161 0
22 130 297 166 352 83 126 283 654 394 1040 90 311 135 515 184 825 77 479 93
922 56 1510 -11 173 -20 378 -20 455 l0 141 -382 99 c-577 148 -750 192 -893
225 -71 16 -197 46 -280 65 -753 176 -1096 243 -1715 335 -507 76 -519 77
-680 54z m573 -394 c285 -25 416 -41 712 -85 588 -88 909 -163 1710 -396 159
-46 748 -265 781 -291 12 -9 17 -57 39 -393 23 -346 19 -530 -21 -910 -66
-639 -185 -1127 -438 -1800 -516 -1365 -1504 -2585 -2664 -3289 -219 -132
-496 -276 -532 -276 -33 0 -288 129 -485 246 -221 130 -342 211 -520 346 -76
56 -170 126 -211 153 -87 59 -505 468 -680 665 -605 683 -1051 1433 -1377
2320 -204 555 -318 1061 -384 1710 -30 295 -24 843 13 1169 l7 53 56 25 c279
124 846 310 1336 439 493 130 1213 259 1670 299 99 8 223 19 275 24 178 16
470 12 713 -9z"/>
<path d="M5530 7939 c-36 -5 -108 -17 -160 -28 -52 -11 -106 -22 -120 -24 -14
-2 -4 -5 21 -6 25 0 115 8 200 20 220 30 336 20 521 -46 68 -25 148 -62 148
-69 0 -3 -35 6 -77 19 -165 50 -269 54 -513 19 -83 -12 -156 -14 -345 -8 -228
6 -244 5 -322 -16 -45 -12 -112 -40 -150 -62 -41 -24 -106 -50 -163 -65 -52
-14 -113 -34 -134 -45 -73 -37 -280 -199 -341 -266 -33 -37 -82 -89 -110 -116
-60 -59 -34 -48 83 37 46 32 86 56 89 53 6 -6 -52 -96 -96 -148 -32 -39 -65
-55 -155 -73 -42 -9 -127 -31 -189 -50 -61 -19 -251 -72 -422 -119 -462 -127
-708 -203 -869 -269 -54 -22 -57 -25 -35 -32 78 -25 177 -84 117 -70 -92 21
-122 25 -194 25 -78 0 -167 -20 -180 -42 -3 -5 11 -36 31 -69 20 -33 35 -63
32 -66 -3 -3 -19 4 -35 16 -17 12 -38 21 -47 21 -14 0 -13 -5 7 -41 29 -53 72
-89 105 -89 30 0 88 34 97 55 7 20 32 19 40 -1 9 -23 -20 -72 -52 -87 -88 -45
-138 -29 -197 62 -29 47 -55 74 -81 88 -50 25 -54 51 -15 95 35 40 101 74 248
127 59 21 177 64 260 95 157 57 543 171 922 271 250 66 293 82 369 135 81 56
110 84 194 185 105 125 158 172 272 239 129 76 190 104 257 116 30 5 99 32
154 60 55 27 125 59 155 70 39 14 45 18 20 14 -43 -8 -138 -47 -205 -84 -27
-15 -77 -33 -110 -40 -86 -17 -156 -48 -286 -125 -131 -77 -162 -104 -270
-236 -165 -203 -230 -240 -599 -334 -459 -119 -820 -226 -1025 -305 -55 -21
-145 -55 -200 -76 -124 -45 -176 -80 -199 -132 -18 -40 -18 -41 7 -95 38 -83
153 -251 231 -336 38 -42 110 -130 159 -196 95 -126 245 -301 319 -372 134
-129 340 -250 473 -278 42 -9 127 -15 215 -15 l146 0 37 -49 c96 -125 326
-134 469 -18 141 115 200 137 359 137 227 0 371 -77 499 -265 92 -136 149
-277 194 -476 40 -180 49 -299 43 -538 -6 -246 -28 -399 -108 -742 -69 -298
-126 -587 -154 -784 -17 -118 -43 -396 -37 -390 3 2 14 33 27 69 62 178 231
445 431 683 93 111 413 433 514 517 47 39 91 77 98 83 29 27 304 234 412 309
352 246 817 482 1181 599 l86 28 -74 70 c-40 39 -89 91 -108 117 -85 116 -152
295 -178 473 l-12 87 -110 -127 c-373 -432 -785 -791 -1047 -912 -104 -48
-173 -65 -263 -64 -171 3 -284 90 -390 303 -59 119 -103 188 -185 290 -105
129 -135 176 -186 287 -73 154 -95 252 -101 433 -6 176 8 298 56 495 53 216
130 424 386 1045 160 390 191 576 114 675 -23 28 -78 55 -115 55 -13 0 -24 5
-24 11 0 8 17 10 55 5 124 -14 225 -78 269 -169 43 -90 43 -124 -3 -308 -50
-204 -74 -343 -150 -879 -87 -618 -103 -758 -110 -1015 l-6 -230 -15 75 c-19
99 -25 56 -10 -71 15 -132 50 -273 105 -420 25 -67 43 -124 40 -127 -5 -6 -85
118 -118 183 -36 72 -73 198 -88 295 -19 130 -6 491 25 725 25 186 218 1361
230 1400 16 51 -103 -202 -185 -394 -360 -844 -446 -1203 -368 -1541 40 -175
111 -318 233 -471 115 -146 142 -187 214 -325 69 -134 129 -205 202 -238 36
-17 64 -21 145 -20 88 0 109 4 180 32 146 58 377 223 597 428 295 274 817 886
891 1042 27 57 29 71 24 130 -20 237 -184 719 -379 1115 -97 196 -300 566
-366 667 -67 102 -176 213 -255 259 -118 70 -301 127 -498 155 -114 17 -357
19 -469 5z m371 -677 c11 -127 1 -290 -30 -472 l-19 -105 0 420 0 420 19 -75
c10 -41 24 -126 30 -188z m671 52 c160 -148 367 -441 502 -711 98 -197 136
-305 150 -428 5 -49 5 -48 -23 30 -59 164 -129 291 -232 419 -58 72 -72 84
-40 33 33 -54 80 -208 102 -339 24 -138 22 -286 -5 -370 -21 -66 -84 -189
-179 -348 -130 -219 -198 -361 -278 -580 -21 -58 -38 -96 -38 -85 -1 27 46
361 64 459 9 44 14 81 12 83 -8 7 -69 -208 -112 -392 -4 -16 -9 -25 -12 -18
-9 26 29 288 72 498 73 348 112 560 130 700 20 152 23 448 6 577 -30 227 -105
411 -220 542 l-26 30 42 -30 c22 -16 61 -48 85 -70z m-2181 63 c19 -13 57 -39
84 -58 28 -20 96 -62 153 -95 57 -32 98 -60 92 -62 -19 -7 -142 30 -215 63
-38 18 -91 51 -117 74 -33 29 -60 44 -90 49 l-42 7 28 23 c36 28 65 28 107 -1z
m-43 -79 c18 -18 15 -27 -8 -21 -11 3 -20 12 -20 19 0 17 12 18 28 2z m-46
-125 c19 -23 48 -14 69 21 23 39 45 39 55 0 13 -51 -65 -117 -113 -95 -44 20
-65 102 -41 158 12 27 13 27 16 -22 2 -27 8 -55 14 -62z m281 -25 l42 -22 -36
-7 c-20 -5 -74 -26 -122 -48 -92 -43 -175 -70 -216 -72 -25 -1 -25 -1 4 -10
17 -6 72 -11 123 -11 50 0 92 -2 92 -4 0 -6 -77 -44 -235 -117 -220 -102 -282
-102 -304 0 -21 101 29 199 121 238 47 19 91 19 154 0 97 -29 176 -15 271 49
46 32 53 32 106 4z m-2077 -813 c-29 -49 -89 -102 -153 -134 -66 -33 -61 -26
26 39 55 41 92 77 113 112 38 62 51 47 14 -17z m345 -864 c95 -45 252 -90 414
-120 134 -25 516 -71 589 -71 60 0 142 25 213 66 l48 27 -32 -34 c-18 -19 -58
-50 -90 -69 -55 -34 -60 -35 -153 -33 -266 4 -475 21 -576 47 -119 30 -253 80
-350 129 -67 35 -165 97 -153 97 3 0 44 -18 90 -39z"/>
<path d="M5178 7873 c7 -3 16 -2 19 1 4 3 -2 6 -13 5 -11 0 -14 -3 -6 -6z"/>
<path d="M4918 7863 c6 -2 18 -2 25 0 6 3 1 5 -13 5 -14 0 -19 -2 -12 -5z"/>
</g>
</svg>
